# xmcd
#
# Track frame offsets:
#	150
#	48872
#	109598
#	138270
#	165712
#	193789
#	196145
#	235250
#	261616
#	286066
#	326828
#
# Disc length: 4670 seconds
#
# Revision: 0
# Processed by: cddbd v1.5.2PL0 Copyright (c) Steve Scherf et al.
# Submitted via: audiograbber 1.83.01
#
DISCID=9e123c0b
DTITLE=Grateful Dead - 92-06-12 Knickerbocker Arena, Albany NY
DYEAR=1900
DGENRE=
TTITLE0=Scarlet Begonias
TTITLE1=Fire On The Mountain
TTITLE2=Long Way To Go Home
TTITLE3=Truckin'
TTITLE4=Smokestack Lightning
TTITLE5=Drums
TTITLE6=Space
TTITLE7=The Last Time
TTITLE8=China Doll
TTITLE9=Sugar Magnolia
TTITLE10=Attics Of My Life
EXTD=
EXTT0=
EXTT1=
EXTT2=
EXTT3=
EXTT4=
EXTT5=
EXTT6=
EXTT7=
EXTT8=
EXTT9=
EXTT10=
PLAYORDER=
